<?xml version="1.0" encoding="iso-8859-1"?>
<!-- Uploaded to: SVG Repo, www.svgrepo.com, Generator: SVG Repo Mixer Tools -->
<svg version="1.1" id="Layer_1" xmlns="http://www.w3.org/2000/svg" xmlns:xlink="http://www.w3.org/1999/xlink" 
	 viewBox="0 0 512 512" xml:space="preserve">
<polyline style="fill:#338DC9;" points="145.988,54.224 145.988,31.283 350.371,31.283 350.371,54.224 "/>
<polyline style="fill:#0071BC;" points="145.988,54.224 145.988,31.283 326.387,31.283 326.387,54.224 "/>
<polyline style="fill:#0B476F;" points="145.988,54.224 145.988,31.283 177.271,31.283 177.271,54.224 "/>
<polyline style="fill:#BDCCD4;" points="358.431,54.486 342.655,283.242 153.338,283.242 137.562,54.486 "/>
<polygon style="fill:#D7E0E5;" points="334.767,54.224 318.991,283.633 342.655,283.633 358.431,54.224 "/>
<rect x="177" y="283.237" style="fill:#FBB03B;" width="141.984" height="23.665"/>
<rect x="177" y="283.237" style="fill:#F7931E;" width="110.44" height="23.665"/>
<polygon style="fill:#0071BC;" points="366.319,488.335 129.674,488.335 145.451,306.907 350.543,306.907 "/>
<circle style="fill:#FFFFFF;" cx="247.992" cy="393.677" r="39.441"/>
<circle style="fill:#FBB03B;" cx="247.992" cy="393.677" r="15.777"/>
<polygon style="fill:#338DC9;" points="350.543,306.574 326.878,306.574 342.655,488.016 366.319,488.016 "/>
<polygon style="fill:#0B476F;" points="145.451,306.574 169.115,306.574 153.338,488.016 129.674,488.016 "/>
<g>
	<rect x="302.403" y="385.825" style="fill:#FFFFFF;" width="16.684" height="15.642"/>
	
		<rect x="284.828" y="341.166" transform="matrix(-0.7071 -0.7071 0.7071 -0.7071 252.7635 802.8065)" style="fill:#FFFFFF;" width="15.641" height="15.777"/>
	
		<rect x="195.477" y="341.231" transform="matrix(-0.7071 -0.7071 0.7071 -0.7071 100.3505 739.6694)" style="fill:#FFFFFF;" width="15.777" height="15.641"/>
	<rect x="177.271" y="385.825" style="fill:#FFFFFF;" width="15.642" height="15.642"/>
</g>
<path d="M247.997,417.274c-13.012,0-23.597-10.585-23.597-23.597c0-13.012,10.585-23.597,23.597-23.597s23.597,10.585,23.597,23.597
	C271.594,406.689,261.008,417.274,247.997,417.274z M247.997,385.722c-4.387,0-7.955,3.568-7.955,7.955s3.568,7.955,7.955,7.955
	s7.955-3.568,7.955-7.955S252.384,385.722,247.997,385.722z"/>
<rect x="152.244" y="457.776" width="16.684" height="15.642"/>
<rect x="177.271" y="457.776" style="fill:#FFFFFF;" width="15.642" height="15.642"/>
<rect x="201.255" y="457.776" width="14.599" height="15.642"/>
<rect x="232.538" y="457.776" style="fill:#FFFFFF;" width="110.534" height="15.642"/>
<rect x="215.853" y="93.849" style="fill:#FBB03B;" width="16.684" height="15.642"/>
<rect x="215.853" y="126.175" style="fill:#F7931E;" width="16.684" height="15.642"/>
<rect x="215.853" y="156.415" style="fill:#FBB03B;" width="16.684" height="15.642"/>
<rect x="215.853" y="188.741" style="fill:#F7931E;" width="16.684" height="15.642"/>
<rect x="215.853" y="220.024" style="fill:#FBB03B;" width="16.684" height="15.642"/>
<path d="M247.997,440.939c26.06,0,47.261-21.202,47.261-47.261c0-23.514-17.263-43.066-39.78-46.663v-23.756h-15.642v23.876
	c-22.183,3.879-39.102,23.265-39.102,46.542C200.735,419.737,221.936,440.939,247.997,440.939z M247.997,362.057
	c17.435,0,31.62,14.185,31.62,31.62c0,17.435-14.185,31.62-31.62,31.62s-31.62-14.185-31.62-31.62
	C216.377,376.242,230.561,362.057,247.997,362.057z"/>
<path d="M349.955,291.063l6.984-101.279h41.399V86.55h-34.279l1.726-25.026h16.912V45.882h-23.984V22.941h-62.566V0h-95.935v22.941
	h-62.566v22.941h-23.984v15.642h16.546l15.83,229.54h23.934v8.023H138.28l-17.137,197.069h16.503V512h15.642v-15.844h189.784V512
	h15.642v-15.844h16.137l-17.137-197.069h-31.326v-8.023h23.568V291.063z M382.697,102.191v71.951h-24.678l4.963-71.951H382.697z
	 M215.853,15.642h64.652v7.299h-64.652V15.642z M153.287,38.582h189.784v7.299H153.287V38.582z M343.373,314.728l14.416,165.786
	H138.205l14.415-165.786H343.373z M185.613,299.086v-8.023h125.132v8.023H185.613z M160.639,275.422l-2.741-39.756h43.357v-15.642
	h-44.437l-1.078-15.642h21.531v-15.642h-22.61l-1.15-16.684h47.744v-15.642h-48.824l-1.007-14.599h25.847v-15.642h-26.925
	l-1.15-16.684h52.059V93.849h-53.139l-2.229-32.326h204.219l-14.751,213.898H160.639z"/>
<g>
	<polygon style="fill:#FFFFFF;" points="326.166,266.949 302.403,266.949 302.403,251.308 311.815,251.308 318.681,171.687 
		334.265,173.031 	"/>
	<rect x="279.462" y="251.308" style="fill:#FFFFFF;" width="16.684" height="15.642"/>
</g>
</svg>