<?xml version="1.0" encoding="iso-8859-1"?>
<!-- Uploaded to: SVG Repo, www.svgrepo.com, Generator: SVG Repo Mixer Tools -->
<!DOCTYPE svg PUBLIC "-//W3C//DTD SVG 1.1//EN" "http://www.w3.org/Graphics/SVG/1.1/DTD/svg11.dtd">
<svg fill="#000000" height="800px" width="800px" version="1.1" id="Capa_1" xmlns="http://www.w3.org/2000/svg" xmlns:xlink="http://www.w3.org/1999/xlink" 
	 viewBox="0 0 60 60" xml:space="preserve">
<g>
	<path d="M35,21c0-1.346-0.541-2.564-1.409-3.464c-0.037-0.038-0.072-0.076-0.11-0.113c-0.191-0.186-0.397-0.355-0.616-0.508
		c-0.069-0.048-0.141-0.091-0.212-0.135c-0.176-0.111-0.36-0.21-0.55-0.299c-0.114-0.053-0.229-0.101-0.347-0.145
		c-0.18-0.068-0.365-0.125-0.554-0.173c-0.106-0.026-0.211-0.054-0.319-0.073c-0.281-0.051-0.569-0.086-0.864-0.087
		c-0.006,0-0.027,0-0.046,0.001c-2.026,0.011-3.766,1.235-4.54,2.98c-0.016,0.037-0.035,0.072-0.051,0.108
		c-0.108,0.261-0.191,0.535-0.254,0.817c-0.015,0.066-0.026,0.133-0.038,0.199C25.037,20.398,25,20.694,25,21
		c0,0.317,0.037,0.624,0.094,0.925c0.007,0.041,0.013,0.083,0.021,0.123c0.06,0.281,0.148,0.552,0.253,0.813
		c0.019,0.048,0.039,0.099,0.058,0.142c0.113,0.256,0.246,0.501,0.398,0.733c0.027,0.042,0.057,0.082,0.085,0.123
		c0.162,0.231,0.34,0.451,0.537,0.651c0.022,0.023,0.046,0.042,0.068,0.064C27.417,25.453,28.644,26,30,26
		C32.757,26,35,23.757,35,21z"/>
	<path d="M24.413,25.207c-0.032-0.044-0.052-0.076-0.081-0.116c-0.067-0.093-0.133-0.185-0.196-0.28
		c-0.01-0.015-0.023-0.032-0.033-0.047l-0.127-0.208c-0.015-0.026-0.028-0.052-0.042-0.078c-0.052-0.091-0.103-0.183-0.152-0.276
		c-0.01-0.02-0.023-0.041-0.033-0.061l-0.114-0.236c-0.009-0.021-0.016-0.04-0.025-0.06c-0.046-0.104-0.088-0.208-0.13-0.314
		c-0.007-0.019-0.016-0.038-0.023-0.057c-0.041-0.107-0.071-0.187-0.098-0.269c-0.002-0.007-0.004-0.015-0.006-0.022
		c-0.039-0.119-0.071-0.24-0.104-0.361c-0.006-0.022-0.013-0.042-0.018-0.064c-0.033-0.122-0.051-0.191-0.066-0.261
		c-0.001-0.005-0.001-0.01-0.002-0.014c-0.028-0.13-0.047-0.262-0.068-0.394c-0.005-0.032-0.012-0.063-0.016-0.094
		c-0.018-0.108-0.027-0.172-0.034-0.234C23.016,21.51,23,21.257,23,21c0-0.275,0.02-0.546,0.051-0.813c0-0.002,0-0.005,0-0.005
		l0.025-0.171c0.007-0.047,0.014-0.082,0.021-0.125c0.026-0.162,0.056-0.322,0.093-0.48c0.002-0.011,0.004-0.023,0.007-0.033
		c0.02-0.083,0.041-0.169,0.065-0.255c0.002-0.008,0.006-0.017,0.008-0.025c0.045-0.157,0.096-0.311,0.151-0.463
		c0.007-0.021,0.013-0.042,0.02-0.063l0.005-0.012c-2.137-1.153-4.033-1.76-5.521-1.76c-2.429,0-3.74,1.622-3.898,4.82
		c0.148,4.402,2.134,8.516,5.434,11.401c-0.625-2.635-0.559-4.409,0.18-5.596c0.872-1.402,2.431-1.614,3.683-1.785
		c0.448-0.061,0.883-0.12,1.249-0.224c-0.019-0.022-0.036-0.045-0.055-0.067L24.413,25.207z"/>
	<path d="M29.086,8.834c0.829,1.429,0.284,2.904-0.153,4.09c-0.156,0.424-0.308,0.835-0.389,1.208
		c0.44-0.085,0.892-0.128,1.351-0.128L30,14c0.166,0.005,0.268,0.011,0.369,0.018c0.007,0,0.015,0.002,0.022,0.002
		c0.217,0.012,0.431,0.034,0.642,0.065c0.016,0.002,0.031,0.005,0.047,0.007c0.216,0.034,0.428,0.077,0.636,0.13
		c0.009,0.002,0.018,0.005,0.027,0.007c0.213,0.055,0.422,0.119,0.627,0.193c0.009,0.003,0.018,0.007,0.026,0.01
		c0.201,0.073,0.397,0.156,0.589,0.247c0.019,0.009,0.038,0.019,0.057,0.028c0.176,0.085,0.348,0.177,0.516,0.277
		c0.04,0.023,0.079,0.048,0.118,0.072c0.141,0.088,0.279,0.179,0.413,0.276c0.065,0.046,0.128,0.094,0.191,0.143
		c0.104,0.081,0.205,0.163,0.304,0.249c0.085,0.073,0.167,0.149,0.249,0.226c0.073,0.07,0.144,0.141,0.214,0.214
		c0.048,0.05,0.1,0.095,0.147,0.147c2.977-1.995,4.596-4.055,4.582-5.851c-0.014-1.743-1.589-3.053-2.908-3.844
		c-3.507-1.719-7.795-2.094-11.654-0.917c-0.333,0.103-0.667,0.218-1,0.346C26.843,6.729,28.384,7.623,29.086,8.834z"/>
	<path d="M51,21C51,9.421,41.579,0,30,0S9,9.421,9,21c0,10.558,7.841,19.297,18,20.76V44h-1c-0.553,0-1,0.447-1,1v6
		c0,0.553,0.447,1,1,1h1v3h-5c-0.553,0-1,0.447-1,1v2h-2c-0.553,0-1,0.447-1,1s0.447,1,1,1h3h16h3c0.553,0,1-0.447,1-1s-0.447-1-1-1
		h-2v-2c0-0.553-0.447-1-1-1h-5v-3h1c0.553,0,1-0.447,1-1v-6c0-0.553-0.447-1-1-1h-1v-2.24C43.159,40.297,51,31.558,51,21z
		 M23.594,27.619c-1.17,0.158-1.904,0.296-2.255,0.859c-0.418,0.673-0.611,2.39,0.848,6.752c0.133,0.397,0.004,0.836-0.323,1.098
		c-0.182,0.146-0.402,0.22-0.625,0.22c-0.179,0-0.357-0.048-0.517-0.144c-5.241-3.163-8.491-8.698-8.692-14.805
		c0.212-4.354,2.361-6.804,5.896-6.804c1.845,0,4.025,0.679,6.484,2.01c0.565-0.751,1.275-1.385,2.091-1.859
		c-0.091-0.951,0.247-1.876,0.556-2.716c0.408-1.106,0.632-1.82,0.3-2.394c-0.397-0.686-1.823-1.661-6.357-2.422
		c-0.414-0.069-0.74-0.389-0.817-0.801c-0.078-0.412,0.109-0.828,0.469-1.044c1.294-0.773,2.633-1.374,3.979-1.785
		c4.337-1.325,9.115-0.93,13.194,1.074c3.259,1.95,3.94,4.108,3.952,5.583c0.019,2.519-1.886,5.105-5.48,7.518
		C36.742,18.882,37,19.91,37,21c0,0.094-0.01,0.185-0.014,0.279c0.842,0.416,1.449,1.171,2,1.858
		c0.744,0.928,1.244,1.491,1.918,1.491c0.794,0,2.364-0.73,5.335-4.208c0.272-0.318,0.714-0.431,1.107-0.289
		C47.739,20.276,48,20.65,48,21.069c-0.001,6.106-3.066,11.74-8.201,15.072c-1.548,0.835-2.938,1.237-4.204,1.237
		c-1.803,0-5.915-0.961-6.289-9.414c-1.136-0.113-2.191-0.501-3.103-1.093C25.415,27.371,24.461,27.5,23.594,27.619z M31,55h-2v-3h2
		V55z M31,42v2h-2v-2H31z"/>
	<path d="M33.619,27.056c-0.717,0.431-1.507,0.729-2.325,0.882c0.146,3.125,0.953,7.441,4.301,7.441
		c0.932,0,2.004-0.322,3.188-0.957c3.699-2.404,6.2-6.226,6.968-10.529c-1.916,1.876-3.458,2.735-4.846,2.735
		c-1.682,0-2.678-1.241-3.478-2.239c-0.281-0.351-0.555-0.691-0.831-0.952C36.054,24.939,35.012,26.219,33.619,27.056z"/>
</g>
</svg>