<svg xmlns="http://www.w3.org/2000/svg" xmlns:xlink="http://www.w3.org/1999/xlink" version="1.1" x="0px" y="0px" viewBox="0 0 343.983 610" style="enable-background:new 0 0 343.983 488;" xml:space="preserve"><g><path d="M171.964,178.386c-3.498,0-6.756,1.005-9.522,2.715l12.335,12.196c1.57,1.554,1.585,4.086,0.032,5.657   c-0.782,0.791-1.813,1.188-2.845,1.188c-1.017,0-2.032-0.385-2.813-1.155l-12.414-12.274c-1.748,2.736-2.776,5.963-2.776,9.429   c0,9.789,8.076,17.754,18.003,17.754c9.928,0,18.004-7.965,18.004-17.754C189.968,186.351,181.892,178.386,171.964,178.386z"/><path d="M171.964,148.632c14.78,0,26.805-11.868,26.805-26.456S186.745,95.72,171.964,95.72c-5.932,0-11.417,1.915-15.863,5.147   l18.675,18.464c1.57,1.554,1.585,4.086,0.032,5.657c-0.782,0.791-1.813,1.188-2.845,1.188c-1.017,0-2.032-0.385-2.813-1.155   l-18.75-18.539c-3.292,4.394-5.242,9.823-5.242,15.694C145.16,136.764,157.184,148.632,171.964,148.632z"/><path d="M215.571,282.091c42.486-2.743,84.852-9.534,126.053-20.207c-0.336-6.156-0.71-12.304-1.117-18.444   c-40.814,10.817-82.798,17.708-124.936,20.506V282.091z"/><path d="M171.964,57.263c41.438,0,81.919,18.38,113.985,51.754c21.669,22.553,38.888,51.259,50.33,83.362   c-4.612-46.557-11.298-93.144-19.972-138.966C310.45,22.464,283.049,0,251.156,0H92.828C60.934,0,33.534,22.464,27.675,53.413   c-8.674,45.822-15.359,92.41-19.972,138.967c11.438-32.103,28.648-60.806,50.302-83.356   C90.059,75.646,130.531,57.263,171.964,57.263z"/><path d="M149.867,235.649h44.196c11.446,0,20.805,8.995,21.446,20.283c41.856-2.81,83.553-9.708,124.072-20.524   c-18.377-98.811-88.403-170.146-167.616-170.146c-79.182,0-149.184,71.342-167.563,170.16   c40.498,10.808,82.177,17.7,124.019,20.509C129.062,244.644,138.421,235.649,149.867,235.649z M229.174,152.632   c7.291,0,13.202,5.844,13.202,13.053c0,7.209-5.911,13.053-13.202,13.053s-13.202-5.844-13.202-13.053   C215.972,158.475,221.882,152.632,229.174,152.632z M171.964,221.895c-14.338,0-26.003-11.553-26.003-25.754   s11.665-25.755,26.003-25.755c14.339,0,26.004,11.554,26.004,25.755S186.303,221.895,171.964,221.895z M171.964,87.72   c19.191,0,34.805,15.457,34.805,34.456s-15.613,34.456-34.805,34.456s-34.805-15.457-34.805-34.456S152.773,87.72,171.964,87.72z    M114.756,178.737c-7.291,0-13.202-5.844-13.202-13.053c0-7.209,5.911-13.053,13.202-13.053s13.202,5.844,13.202,13.053   C127.958,172.893,122.047,178.737,114.756,178.737z"/><path d="M26.342,457.888v21.011c0,5.019,4.15,9.101,9.251,9.101h26.306c5.101,0,9.251-4.082,9.251-9.101v-9.005h-4.115   C52.387,469.895,38.341,465.695,26.342,457.888z"/><path d="M185.568,404.982V243.649h-27.206v161.333c0,7.391,6.103,13.403,13.603,13.403   C179.465,418.386,185.568,412.373,185.568,404.982z"/><path d="M272.78,469.895v9.005c0,5.019,4.15,9.101,9.251,9.101h26.306c5.101,0,9.251-4.082,9.251-9.101v-20.975   c-11.986,7.784-26.013,11.97-40.639,11.97H272.78z"/><path d="M128.359,263.945c-42.124-2.796-84.09-9.682-124.883-20.491c-0.407,6.14-0.781,12.288-1.117,18.444   c41.183,10.664,83.531,17.451,126,20.193V263.945z"/><path d="M342.042,270.037c-41.355,10.607-83.855,17.351-126.471,20.07V409.11c0,23.92-19.461,43.381-43.381,43.381h-0.45   c-23.92,0-43.381-19.461-43.381-43.381V290.107c-42.598-2.718-85.08-9.458-126.418-20.056c-2.107,42.704-2.504,85.692-1.164,128.26   c1.122,35.654,30.227,63.583,66.258,63.583h209.914c36.031,0,65.136-27.929,66.258-63.583   C344.547,355.738,344.149,312.746,342.042,270.037z"/><path d="M149.867,243.649c-7.448,0-13.508,6.06-13.508,13.508V409.11c0,19.509,15.872,35.381,35.381,35.381h0.45   c19.509,0,35.381-15.872,35.381-35.381V257.157c0-7.448-6.06-13.508-13.508-13.508h-0.495v161.333   c0,11.802-9.691,21.403-21.604,21.403s-21.603-9.602-21.603-21.403V243.649H149.867z"/></g><text x="0" y="503" fill="#000000" font-size="5px" font-weight="bold" font-family="'Helvetica Neue', Helvetica, Arial-Unicode, Arial, Sans-serif">Created by Amethyst Studio</text><text x="0" y="508" fill="#000000" font-size="5px" font-weight="bold" font-family="'Helvetica Neue', Helvetica, Arial-Unicode, Arial, Sans-serif">from the Noun Project</text></svg>