<svg xmlns="http://www.w3.org/2000/svg" xmlns:xlink="http://www.w3.org/1999/xlink" xml:space="preserve" style="shape-rendering:geometricPrecision;text-rendering:geometricPrecision;image-rendering:optimizeQuality;" viewBox="0 0 100 125" x="0px" y="0px" fill-rule="evenodd" clip-rule="evenodd"><defs><style type="text/css">
   
    .fil0 {fill:black}
   
  </style></defs><g><path class="fil0" d="M14.3115 54.0335l5.92091 -2.94215c-0.640163,-3.952 1.44568,-6.36974 4.94059,-7.8414 -0.198427,-1.17875 0.03189,-0.837408 -0.874023,-1.55316l-11.6729 5.27012c-1.56497,0.857487 -2.06695,3.28703 0.481894,4.27917l0.346066 2.33742 0.857487 0.450004zm56.2469 10.6808c3.69688,0.274018 6.69572,2.8949 6.69572,5.85241 0,2.42364 -2.0138,4.32169 -4.77405,4.7776 0.670871,-0.493705 1.11851,-1.19292 1.27088,-2.00198l0.285829 -2.11183c-0.0153545,-0.183072 -0.0507878,-0.356696 -0.102757,-0.52087l0.0980323 -0.0496067 -0.01063 -0.0224411c0.611816,-0.442917 0.0200789,-1.50592 -0.653155,-1.06418l-0.111024 0.0602367c-1.87679,-1.79411 -6.47485,-1.39371 -6.8221,1.65356l-0.303546 1.80238 0.0129922 0.00118111c-0.0165356,0.253939 0.01063,0.500791 0.0755911,0.737014 -4.69964,-3.55042 -1.8945,-9.57645 4.33822,-9.11346zm-3.25396 -33.3995l-1.01221 3.83507c8.26778,-6.65556 20.712,-3.06853 23.5041,5.31264l0.577564 -3.62247c-0.0129922,-0.559847 -0.0448822,-1.10552 -0.101576,-1.63584 -0.475988,-1.34411 -1.23781,-2.56656 -2.21458,-3.62956 -2.30081,-2.50278 -5.66107,-4.01578 -9.09102,-4.35476 -3.85279,-0.381499 -8.01266,0.686226 -11.4391,3.74058 -0.0779534,0.134647 -0.152363,0.256301 -0.22323,0.354333zm6.53982 14.1958c2.126,0 3.84924,1.11024 3.84924,2.47915 0,1.36891 -1.72324,2.47915 -3.84924,2.47915 -2.12482,0 -3.84806,-1.11024 -3.84806,-2.47915 0,-1.36891 1.72324,-2.47915 3.84806,-2.47915zm15.7017 -13.4328c-0.989772,-2.52049 -3.01656,-4.53074 -6.88116,-5.928 -4.40437,-1.59214 -9.60244,-1.20828 -13.9655,2.8453 6.29296,-4.25673 15.0899,-3.29412 19.9702,2.01616 0.314176,0.34016 0.60591,0.695675 0.876385,1.06654zm-23.5856 4.32877l-5.04453 19.1045c8.84889,-6.56344 21.7301,-4.69492 25.4837,6.24926l3.04136 -19.0667c-0.249215,-2.19687 -1.23426,-4.16224 -2.70711,-5.76501 -5.05988,-5.50634 -14.5525,-6.10989 -20.7096,-0.452366l-0.06378 -0.0696856zm-5.39768 20.4415l-1.1256 4.28035c6.04493,-5.10122 22.7482,-4.58744 25.9301,7.85794l0.724021 -5.29256c-0.623627,-2.6575 -1.76576,-4.83311 -3.26223,-6.53391 -5.66579,-6.43824 -15.7289,-5.75792 -22.2663,-0.311813zm9.22921 2.3386c7.52132,0 14.7568,6.10753 14.7568,10.9926 0,1.8697 0.546855,5.29847 -0.994496,6.48667 -0.891739,0.687407 -1.71852,0.638981 -3.3142,0.660241l-16.8852 -1.83427c-2.3764,-0.230317 -4.65122,-0.732289 -6.43588,-1.83072l-44.587 -5.26185c-1.42678,-0.168899 -2.59608,-1.17639 -2.6138,-2.6138l-0.0933078 -7.69612c0.655517,0.983866 2.0386,1.676 3.46892,1.82954l41.8149 4.46578c0.253939,0.0271656 0.474807,0.0874023 0.673234,0.175986 3.43467,-2.30435 8.18392,-5.37406 14.21,-5.37406zm-14.5537 13.0855c-1.26025,-1.40552 -2.01143,-3.38979 -1.96891,-6.19611 0.290553,-0.175986 0.59528,-0.370869 0.91418,-0.581107l-41.2149 -4.40082c-0.707486,-0.0755911 -1.44686,-0.269293 -2.13191,-0.578745l0.06378 5.25477c0.00944889,0.862212 0.783077,1.363 1.57088,1.45513l42.7669 5.04689zm15.3804 -9.6237c5.41185,0.401578 9.79968,3.5894 9.79968,7.11856 0,3.52916 -4.38783,6.06501 -9.79968,5.66461 -5.41067,-0.401578 -9.79968,-3.5894 -9.79968,-7.11856 0,-3.52916 4.38901,-6.06501 9.79968,-5.66461zm-32.7794 -25.5852c4.72681,0 9.23393,3.05199 7.47407,6.68037 0.385042,-0.0224411 1.07954,-0.161812 1.4256,0.0283467l2.15907 1.77757c0.291735,-3.19254 -1.93466,-5.97052 -5.29847,-7.42329 4.7646,1.21064 10.232,4.91933 8.32447,9.91307l0.674415 0.555122c1.53545,-3.57168 -0.377956,-7.04179 -3.89885,-9.2422 -6.47722,-4.04767 -18.2671,-3.67326 -23.3789,2.09293 0.252758,0.200789 0.453547,0.356696 0.507878,0.686226 1.75986,-2.07285 4.33232,-3.29884 7.11384,-4.00515 -3.18191,1.37363 -5.32327,3.94019 -5.32327,6.87761 0,4.38547 4.77051,7.94179 10.6524,7.94179 4.01106,0 7.50478,-1.65356 9.32133,-4.09728 -0.571658,-1.11851 -1.57324,-2.13073 -2.81577,-3.05317l0.0484256 -1.27324c-1.29804,1.66301 -3.93901,2.80042 -6.98628,2.80042 -4.32996,0 -7.8414,-2.29726 -7.8414,-5.12957 0,-2.83231 3.51144,-5.12957 7.8414,-5.12957zm12.9521 -6.7406c1.12442,-0.485437 9.68039,-4.25436 10.0666,-4.32405 1.58151,-0.167718 2.28191,0.366145 2.48033,1.21182 0.356696,1.52009 -0.843314,2.81577 -1.20828,4.08428 2.61262,0.22323 4.01342,-0.08504 3.3201,2.42718l-7.08195 25.6774c-0.43583,1.58269 -0.603548,2.55002 -2.13191,2.39057l-43.4082 -4.52484c-2.86774,-0.298821 -3.36499,-2.23939 -2.22521,-4.84846l0.621265 -1.42206c-1.31576,-1.51537 -0.739376,-3.71223 0.986228,-4.74689 0.258663,-0.154726 1.21891,-0.479531 1.35592,-0.618903l6.33666 -14.5076c0.451185,-1.03347 1.34647,-2.17915 2.35986,-2.75435 -0.0519689,-0.843314 -0.266931,-1.01694 -0.668509,-1.826 -1.95592,-4.10082 1.66064,-4.09019 2.18388,-3.70515l6.68273 5.74375 20.3305 1.74332zm3.87641 5.12248l0.822054 0.357877 5.61146 -2.56065c-0.262207,-2.7201 1.76812,-4.38547 1.4256,-5.84296 -0.0968512,-0.415751 -0.52087,-0.673234 -1.51655,-0.579926l-10.9513 4.72681 0 0.980323 0.793707 0.0933078c0.243309,-0.0555122 1.60041,-1.13623 2.95042,0.727565 0.473626,0.653155 0.77599,1.49883 0.864574,2.09765zm-27.8908 -2.34096l0.711029 -0.310632c-0.00944889,-0.711029 -0.118111,-1.67836 0.240947,-2.17561 0.327168,-0.451185 0.870479,-0.537406 1.80946,0.100394l0.790164 -0.0921267 0 -1.06418 -6.991 -6.00832c-0.950795,-0.0767723 -1.35946,0.178348 -1.45395,0.585831 -0.122836,0.52087 0.119292,1.28859 0.450004,2.02088 0.702761,1.26497 0.910637,1.90868 0.696856,3.32601l3.74649 3.61775zm21.3828 20.7486c0.0968512,-0.628351 0.146458,-1.21655 0.147639,-1.77049 -9.70165,6.12406 -26.3754,0.68032 -23.8112,-7.59809 -0.355515,0.187797 -0.688588,0.388586 -0.996858,0.602367 -0.491342,2.99176 1.17993,5.64335 4.04295,7.53904 -2.41892,-1.04056 -4.90043,-2.73545 -6.29887,-4.73271 -0.114568,0.333073 -0.197246,0.685045 -0.24449,1.05828 5.5843,6.90478 18.6639,8.02329 27.1608,4.90161zm5.64926 -4.26145l0.646068 0.532681c5.21343,-4.93941 3.53743,-11.1958 -2.62561,-14.9387 -7.4788,-4.54374 -19.6372,-4.54374 -27.116,0 -3.37325,2.04923 -5.52052,4.85909 -5.7154,7.9914l0.876385 -0.395672c0.348428,-2.66813 2.29608,-5.07996 5.26894,-6.88588 7.20832,-4.37838 19.0466,-4.37838 26.2561,0 5.7343,3.4831 7.29336,9.1418 2.40947,13.6962zm-4.81421 4.3087l4.66657 4.07365 0.996858 -0.229136 -0.0165356 -2.33151c0.638981,-0.150001 1.1693,-0.362601 1.32403,-1.05709 0.205513,-0.92481 -0.346066,-2.11301 -1.14686,-2.85711l-8.48156 -6.98155 -0.681501 0.0401578 -0.03189 0.833865c2.94097,2.2512 3.91893,4.80476 3.37089,8.50873z"/></g><text x="0" y="115" fill="#000000" font-size="5px" font-weight="bold" font-family="'Helvetica Neue', Helvetica, Arial-Unicode, Arial, Sans-serif">Created by Rfourtytwo</text><text x="0" y="120" fill="#000000" font-size="5px" font-weight="bold" font-family="'Helvetica Neue', Helvetica, Arial-Unicode, Arial, Sans-serif">from the Noun Project</text></svg>