<svg xmlns="http://www.w3.org/2000/svg" xmlns:xlink="http://www.w3.org/1999/xlink" version="1.1" x="0px" y="0px" viewBox="0 0 1024 1280" style="enable-background:new 0 0 1024 1024;" xml:space="preserve"><g><path d="M776.5,865.61v43.67c0,16.11-13.11,29.22-29.22,29.22H566.47c0.01-2.52,0.03-5.02,0.07-7.5c0.04-2.52,0.09-5.02,0.16-7.5   c0.12-4.17,0.29-8.28,0.5-12.3c0.54-10.55,1.37-20.68,2.51-30.51h166.92c8.86,0,17.28-1.92,24.87-5.36c2.6-1.18,5.11-2.54,7.5-4.07   C771.65,869.57,774.16,867.68,776.5,865.61z"/><path d="M776.48,126.52c0-0.08-0.01-0.15-0.02-0.23c-0.02-0.18-0.04-0.36-0.07-0.54c-0.02-0.14-0.05-0.28-0.08-0.42   s-0.07-0.28-0.11-0.42c-0.02-0.05-0.03-0.11-0.05-0.17c-0.09-0.28-0.19-0.56-0.32-0.83c-0.07-0.16-0.15-0.32-0.24-0.48   c-0.11-0.21-0.24-0.42-0.37-0.62c-0.03-0.05-0.06-0.09-0.09-0.14l-14.05-19.9c-7.64-10.81-20.1-17.27-33.33-17.27h-431.5   c-13.23,0-25.69,6.46-33.33,17.27l-14.05,19.9c-0.03,0.05-0.06,0.09-0.09,0.14c-0.13,0.2-0.26,0.41-0.37,0.62   c-0.09,0.16-0.17,0.32-0.24,0.48c-0.13,0.27-0.23,0.55-0.32,0.83c-0.02,0.06-0.03,0.12-0.05,0.17c-0.04,0.14-0.08,0.28-0.11,0.42   s-0.06,0.28-0.08,0.42c-0.03,0.18-0.05,0.36-0.07,0.54c-0.01,0.08-0.02,0.15-0.02,0.23c-0.02,0.16-0.02,0.32-0.02,0.48v217.08   c2.34-2.07,4.85-3.96,7.5-5.65c2.39-1.53,4.9-2.89,7.5-4.07c7.59-3.44,16.01-5.36,24.87-5.36h449.26c8.86,0,17.28,1.92,24.87,5.36   c2.6,1.18,5.11,2.54,7.5,4.07c2.65,1.69,5.16,3.58,7.5,5.65V127C776.5,126.84,776.5,126.68,776.48,126.52z M586.93,234.66   c-40.53-6.07-79.49-20.51-120.1-26.03c-45.8-6.23-93.13-0.75-136.34,15.7l-7.81-89.83h378.64l-7.25,83.37   C663.51,237.68,623.45,240.12,586.93,234.66z"/><path d="M567.31,791.17c-1.71,8.16-3.67,16.32-5.61,24.34c-2.05,8.53-4.18,17.36-5.98,26.1c-4.47,21.61-7.24,44.04-8.5,68.56   c-0.23,4.36-0.4,8.81-0.52,13.33c-0.07,2.48-0.12,4.98-0.16,7.5c-0.04,2.48-0.06,4.98-0.07,7.5h-68.94   c-0.01-2.52-0.03-5.02-0.07-7.5c-0.04-2.52-0.09-5.02-0.16-7.5c-0.12-4.52-0.29-8.96-0.52-13.32c-1.26-24.53-4.03-46.96-8.5-68.57   c-1.8-8.75-3.93-17.57-5.99-26.11c-1.12-4.64-2.27-9.4-3.36-14.14c0.08-0.07,0.17-0.13,0.25-0.19c0.3-0.24,0.61-0.47,0.92-0.7   c0.38-0.29,0.76-0.56,1.15-0.84c0.43-0.3,0.86-0.59,1.3-0.88c0.36-0.23,0.72-0.46,1.09-0.68c0.41-0.25,0.82-0.5,1.24-0.74   c0.53-0.3,1.07-0.59,1.61-0.88c0.5-0.26,1-0.51,1.51-0.76c0.15-0.07,0.29-0.14,0.43-0.2c0.46-0.22,0.92-0.43,1.38-0.63   c0.07-0.03,0.13-0.06,0.2-0.09c0.49-0.2,0.97-0.41,1.46-0.6c0.05-0.03,0.1-0.05,0.15-0.06c0.5-0.2,1-0.39,1.5-0.57   c0.58-0.21,1.16-0.41,1.75-0.6c0.12-0.04,0.25-0.08,0.37-0.12c0.55-0.17,1.1-0.33,1.66-0.49c0.53-0.15,1.07-0.29,1.61-0.43   c0.29-0.08,0.58-0.15,0.88-0.21c0.44-0.1,0.89-0.2,1.34-0.3c0.01,0,0.01,0,0.01,0c0.45-0.09,0.91-0.18,1.37-0.26   c0.29-0.06,0.58-0.11,0.88-0.16c0.46-0.08,0.92-0.15,1.38-0.21c0.68-0.1,1.36-0.18,2.04-0.25c9.87-1.03,20.03,0.39,30.78,1.9   c6.25,0.87,12.71,1.77,19.28,2.2c2.17,0.14,5.6,0.27,9.73,0.1c0.37-0.01,0.74-0.03,1.12-0.06c0.05,0.01,0.1,0,0.16,0   c0.21-0.01,0.42-0.02,0.63-0.04c0.21-0.01,0.42-0.02,0.63-0.04c0.5-0.03,1.01-0.07,1.53-0.11c0.06-0.01,0.12-0.01,0.18-0.02   c0.19-0.01,0.37-0.03,0.56-0.05c1-0.09,2.02-0.2,3.05-0.33c1.3-0.16,2.62-0.36,3.97-0.6c0.27-0.05,0.54-0.1,0.8-0.15   c0.41-0.07,0.82-0.15,1.23-0.24c0.85-0.17,1.7-0.36,2.56-0.57c0.42-0.1,0.84-0.21,1.26-0.32c0.58-0.15,1.17-0.32,1.75-0.49   c0.47-0.14,0.94-0.28,1.41-0.43C567.13,791.23,567.22,791.2,567.31,791.17z"/><path d="M457.53,938.5H276.72c-16.11,0-29.22-13.11-29.22-29.22v-43.67c2.34,2.07,4.85,3.96,7.5,5.65c2.39,1.53,4.9,2.89,7.5,4.07   c7.59,3.44,16.01,5.36,24.87,5.36h166.92c1.14,9.83,1.97,19.97,2.51,30.52c0.21,4.02,0.38,8.12,0.5,12.29   c0.07,2.48,0.12,4.98,0.16,7.5C457.5,933.48,457.52,935.98,457.53,938.5z"/><path d="M769,365.27c-2.15-2.88-4.67-5.46-7.5-7.68c-6.86-5.38-15.5-8.59-24.87-8.59h-58.78l-20.37,42.25   c-3.59,7.45-11.26,12.28-19.53,12.31l-251.7,0.88h-0.08c-8.35,0-16.06-4.87-19.65-12.42L346.06,349h-58.69   c-9.37,0-18.01,3.21-24.87,8.59c-2.83,2.22-5.35,4.8-7.5,7.68c-3.82,5.13-6.46,11.19-7.5,17.77v443.62   c1.04,6.58,3.68,12.64,7.5,17.76c2.15,2.88,4.67,5.46,7.5,7.68c6.86,5.38,15.5,8.59,24.87,8.59h164.12   c-0.84-5.07-1.77-10.08-2.79-15.04c-1.74-8.42-3.83-17.08-5.85-25.46c-0.18-0.75-0.36-1.49-0.55-2.25l-0.13,0.13l-3.06-13.65   l-1.17-5.21l-0.98-4.45l0.03-0.03c-4.11-19.67-7.4-42.4-3.92-65.49c0.83-5.71,5.86-10.05,11.69-10.05h134.48   c5.83,0,10.86,4.34,11.7,10.1c0.37,2.43,0.66,4.89,0.89,7.39c0.98,10.73,0.69,22.16-0.86,34.71l-0.02,0.13l-0.27,2.29l-0.03,0.04   c-2.1,15.65-5.86,31.25-9.5,46.35c-2.02,8.37-4.11,17.03-5.85,25.45c-1.02,4.96-1.95,9.97-2.79,15.04h164.12   c9.37,0,18.01-3.21,24.87-8.59c2.83-2.22,5.35-4.8,7.5-7.68c3.82-5.12,6.46-11.18,7.5-17.76V383.04   C775.46,376.46,772.82,370.4,769,365.27z M343,772.9h-20v-37.94h20V772.9z M343,702.62h-20V536.64h20V702.62z M504,419.03l16-0.06   v13.54c0,0.82-0.67,1.49-1.49,1.49h-13.02c-0.82,0-1.49-0.67-1.49-1.49V419.03z M512,669.61c-19.25,0-34.9-15.66-34.9-34.91   c0-11.72,7.45-22.82,16.09-35.67c5.02-7.46,10.21-15.18,14.31-23.64l4.64-9.56l4.41,9.67c4.34,9.52,9.88,17.7,15.24,25.61   c8.11,11.97,15.11,22.3,15.11,33.59C546.9,653.95,531.25,669.61,512,669.61z M566.13,514.08c-1.22,12.09-11.29,21.35-23.44,21.55   l-60.63,1.01c-12.46,0.2-23-9.18-24.24-21.59l-9.55-95.83l32.54-0.11v47.85c0,4.14,3.35,7.49,7.49,7.49h47.4   c4.14,0,7.49-3.35,7.49-7.49v-48.07l32.57-0.11L566.13,514.08z"/><rect x="408.94" y="365.5" width="21" height="20"/><rect x="447.94" y="365.5" width="21" height="20"/><rect x="555.06" y="365.5" width="21" height="20"/><rect x="594.06" y="365.5" width="21" height="20"/><rect x="487" y="365.5" width="50" height="20"/></g><text x="0" y="1039" fill="#000000" font-size="5px" font-weight="bold" font-family="'Helvetica Neue', Helvetica, Arial-Unicode, Arial, Sans-serif">Created by IconPai</text><text x="0" y="1044" fill="#000000" font-size="5px" font-weight="bold" font-family="'Helvetica Neue', Helvetica, Arial-Unicode, Arial, Sans-serif">from the Noun Project</text></svg>