<?xml version="1.0" encoding="utf-8"?><!-- Uploaded to: SVG Repo, www.svgrepo.com, Generator: SVG Repo Mixer Tools -->
<svg fill="#000000" width="800px" height="800px" viewBox="0 0 24 24" id="rice-cooker-2" data-name="Flat Color" xmlns="http://www.w3.org/2000/svg" class="icon flat-color"><path id="secondary" d="M18,22H16a1,1,0,0,1-1-1V20a1,1,0,0,1,1-1h2a1,1,0,0,1,1,1v1A1,1,0,0,1,18,22ZM9,21V20a1,1,0,0,0-1-1H6a1,1,0,0,0-1,1v1a1,1,0,0,0,1,1H8A1,1,0,0,0,9,21ZM13,2H11A2,2,0,0,0,9,4V5a1,1,0,0,0,1,1h4a1,1,0,0,0,1-1V4A2,2,0,0,0,13,2Z" style="fill: rgb(44, 169, 188);"></path><path id="primary" d="M17,4H7A3,3,0,0,0,4,7V19a2,2,0,0,0,2,2H18a2,2,0,0,0,2-2V7A3,3,0,0,0,17,4Z" style="fill: rgb(0, 0, 0);"></path><path id="secondary-2" data-name="secondary" d="M20,10H4A1,1,0,0,1,4,8H20a1,1,0,0,1,0,2ZM10,16v3h4V16a2,2,0,0,0-2-2h0A2,2,0,0,0,10,16Z" style="fill: rgb(44, 169, 188);"></path></svg>